# xmcd
#
# Track frame offsets:
#	150
#	12816
#	26429
#	40115
#	54362
#	68937
#	82778
#	94854
#	105716
#	119342
#	131399
#	147418
#	165083
#	182668
#	198696
#	211506
#	225680
#
# Disc length: 3249 seconds
#
# Revision: 1
# Processed by: cddbd v1.5.2PL0 Copyright (c) Steve Scherf et al.
# Submitted via: audiograbber 1.83.01
#
DISCID=d30caf11
DTITLE=Various Artist - CDX Volume 544 (April 23, 2012)
DYEAR=2012
DGENRE=Country
TTITLE0=Scotty McCreery - Water Tower Town 
TTITLE1=Montgomery Gentry - My So Called Life [Kicks My Ass Version]
TTITLE2=Montgomery Gentry - My So Called Life [Breaks My Back Version]
TTITLE3=Sawyer Brown - Ain't Going Out That Way
TTITLE4=Kacey Jones And Jesse Goldberg - Divided We Stand 
TTITLE5=Neal McCoy - Shotgun Rider
TTITLE6=Buzz Cason - Climb Up On A Good Ol' Song And Ride
TTITLE7=Buzz Cason - My Baby She's Cookin' 
TTITLE8=Cerrito And Lynn Anderson - Mexican Angel
TTITLE9=T. Ray Walters - Carpool Blues
TTITLE10=Florida Georgia Line - Cruise
TTITLE11=Zach Paxson - Good Luck With That 
TTITLE12=Joseph Scott - Taylorsville Angel 
TTITLE13=Dee Hilligoss - Too Soon
TTITLE14=Israel David - You've Just Been Robbed By Jesse James
TTITLE15=Nikki Boon - When Love Takes Over
TTITLE16=Country Artists join Billy Gilman for Soles4Souls - The Choice 
EXTD=
EXTT0=
EXTT1=
EXTT2=
EXTT3=
EXTT4=
EXTT5=
EXTT6=
EXTT7=
EXTT8=
EXTT9=
EXTT10=
EXTT11=
EXTT12=
EXTT13=
EXTT14=
EXTT15=
EXTT16=
PLAYORDER=
